<svg width="90" height="90" viewBox="0 0 90 90" fill="none" xmlns="http://www.w3.org/2000/svg">
<path fill-rule="evenodd" clip-rule="evenodd" d="M40.5708 29.8082H18.006C17.5564 29.9962 17.7633 29.8324 17.4177 30.3639L6.1223 50.0555C6.02076 50.6104 13.8256 63.7947 14.7612 65.359C15.3478 66.3394 17.1568 69.8198 17.7427 70.3803L40.9478 70.3835C41.5639 69.7367 48.3888 57.302 49.1821 55.9884C49.8827 54.8285 50.5135 53.5657 51.227 52.3657C52.7217 49.8528 52.929 49.8673 52.4814 48.5803C51.5714 45.9629 50.4153 42.6378 49.7361 40.031L42.9234 50.8259C42.4342 51.6056 36.532 61.0596 36.3205 61.7242L22.6999 61.7055L19.2377 55.6914C18.7973 54.959 15.8768 50.138 15.7733 49.7306C15.6381 49.1989 18.5238 44.6513 19.0192 43.7693C19.5688 42.7908 20.1494 41.8253 20.7555 40.7826C21.1054 40.181 22.0044 38.301 22.5706 37.9921L36.2298 37.9886L40.5705 29.8081L40.5708 29.8082Z" fill="white"/>
<path fill-rule="evenodd" clip-rule="evenodd" d="M40.3585 49.8944C40.5195 49.7141 40.6801 49.5157 40.8605 49.2363C41.0148 48.9974 41.087 48.8503 41.2666 48.5448L53.6862 28.2305L67.273 28.2615L74.2121 40.2052C74.3501 40.6689 73.0571 42.5941 72.7174 43.1578C72.1245 44.1415 71.5747 45.1185 70.9896 46.1533C70.5111 46.9999 67.9855 51.6174 67.4336 51.9648L53.7748 51.9403L49.4417 60.1489L72.156 60.129C72.7657 59.4349 73.2259 58.3862 73.7278 57.5487L78.1006 49.9585C78.75 48.802 83.8234 40.2497 83.8781 39.8711C83.9396 39.4455 78.7625 30.726 78.152 29.6738C77.1508 27.9487 76.2172 26.2583 75.2146 24.5796L72.3755 19.617L48.8881 19.6451L37.7072 39.4791C37.099 40.5191 37.1098 40.2315 37.5314 41.4859C38.0919 43.1544 39.6862 48.8863 40.3586 49.8945L40.3585 49.8944Z" fill="white"/>
</svg>
